<?xml version="1.0" encoding="utf-8"?>
<!-- Generator: Adobe Illustrator 16.0.0, SVG Export Plug-In . SVG Version: 6.00 Build 0)  -->
<!DOCTYPE svg PUBLIC "-//W3C//DTD SVG 1.1//EN" "http://www.w3.org/Graphics/SVG/1.1/DTD/svg11.dtd">
<svg version="1.1" id="Layer_1" xmlns="http://www.w3.org/2000/svg" xmlns:xlink="http://www.w3.org/1999/xlink" x="0px" y="0px"
	 width="144px" height="144px" viewBox="0 0 144 144" enable-background="new 0 0 144 144" xml:space="preserve">
<path fill="#FFFFFF" stroke="#939598" stroke-miterlimit="10" d="M130.95,72.427c0,34.249-27.766,62.01-62.015,62.01
	c-34.25,0-62.016-27.762-62.016-62.01c0-34.253,27.766-62.018,62.016-62.018C103.185,10.409,130.95,38.174,130.95,72.427z"/>
<path fill="#F15A22" d="M72.541,55.218c0.643,1.436,1.162,3.102,2.279,3.697c2.417,1.284,5.385-1.736,7.037-3.139
	c1.77-1.503,4.342-3.909,5.978-7.216c1.854-3.744,5.572-13.469,11.145-9.519c4.036,2.862,6.155,7.641,7.915,12.093
	c4.416,11.177,6.636,23.147,7.482,35.104c0.28,3.961,2.223,13.437-1.978,16.145c-2.446,1.578-5.792-3.505-6.989-5.047
	c-0.854-1.102-1.662-2.26-2.379-3.455c-2.404-4.006-5.811-10.487-6.211-11.39c-0.403-0.901-2.974-6.612-4.109-8.581
	c-2.033-3.528-5.54-7.359-10.016-6.167c-1.268,0.339-3.171,0.659-3.925,1.879c-0.645,1.045,0.037,2.377,0.338,3.419
	c0.389,1.342,0.631,2.741,0.914,4.11c0.92,4.422,1.76,8.906,2.058,13.419c0.222,3.372,1.124,7.2,0.14,10.531
	c-0.462,1.56-1.811,1.115-2.588,0.029c-0.865-1.206-1.129-2.764-1.708-4.109c-0.684-1.584-1.428-3.146-2.079-4.745
	c-0.367-0.901-3.405-7.647-5.543-10.018c-2.138-2.373-5.243-5.144-8.518-5.244c-3.272-0.101-5.143,1.137-6.478,2.906
	c-1.337,1.77-3.708,5.175-4.075,5.709c-0.368,0.535-3.607,5.345-3.775,5.577c-0.165,0.234-4.738,6.044-4.975,6.279
	c-3.199,3.209-9.107,8.268-14.052,7.062c-6.049-1.472-5.749-8.752-5.549-13.554c0.177-4.283,0.311-8.578,0.754-12.843
	c0.63-6.063,1.906-12.047,4.719-17.502c0.569-1.103,1.069-1.803,1.336-2.271c0.268-0.468,0.769-1.136,0.769-1.136
	s0.702-6.58,0.934-8.448c0.234-1.872,0.336-3.809,1.638-4.31c1.302-0.501,2.706-0.2,2.805,1.57c0.102,1.77,0.234,7.348,0.234,7.348
	s1.836-0.436,2.872-0.436c1.035,0,4.041,0.368,5.979,1.537c1.937,1.168,5.477,4.442,7.28,6.346c1.974,2.083,3.718,4.66,6.271,6.087
	c2.479,1.389,6.513,1.127,7.355-2.248c0.332-1.335,1.771-7.007,1.771-7.012c0.337-1.34,0.478-4.852,2.456-4.828
	C71.307,52.866,71.973,53.952,72.541,55.218z"/>
</svg>
