<?xml version="1.0" encoding="utf-8"?>
<!-- Generator: Adobe Illustrator 16.0.0, SVG Export Plug-In . SVG Version: 6.00 Build 0)  -->
<!DOCTYPE svg PUBLIC "-//W3C//DTD SVG 1.1//EN" "http://www.w3.org/Graphics/SVG/1.1/DTD/svg11.dtd">
<svg version="1.1" id="Layer_1" xmlns="http://www.w3.org/2000/svg" xmlns:xlink="http://www.w3.org/1999/xlink" x="0px" y="0px"
	 width="144px" height="144px" viewBox="0 0 144 144" enable-background="new 0 0 144 144" xml:space="preserve">
<path fill="#FFFFFF" stroke="#939598" stroke-miterlimit="10" d="M133.571,72.612c0,34.248-27.766,62.011-62.015,62.011
	c-34.25,0-62.015-27.763-62.015-62.011c0-34.253,27.765-62.018,62.015-62.018C105.806,10.595,133.571,38.359,133.571,72.612z"/>
<g>
	<g>
		<polygon fill="#82806A" points="66.413,106.42 79.044,113.328 91.686,106.42 79.044,99.256 		"/>
	</g>
	<g>
		<polygon fill="#CAC6A3" points="79.042,36.786 79.042,53.029 91.686,60.035 91.686,43.628 		"/>
	</g>
	<g>
		<polygon fill="#8ED8F8" points="91.686,29.557 79.042,36.786 91.686,43.628 104.322,36.786 		"/>
	</g>
	<g>
		<polygon fill="#FFF200" points="41.124,60.009 41.124,76.252 53.767,83.262 53.767,66.85 		"/>
	</g>
	<g>
		<polygon fill="#FFF200" points="53.767,66.853 41.124,60.009 53.767,52.78 66.403,60.009 		"/>
	</g>
	<g>
		<polygon fill="#8AA739" points="66.403,60.009 66.403,76.252 79.042,83.262 79.042,66.85 		"/>
	</g>
	<g>
		<polygon fill="#005868" points="91.686,60.009 91.686,76.252 79.044,83.262 79.044,66.85 		"/>
	</g>
	<g>
		<polygon fill="#8ED8F8" points="79.042,66.853 66.403,60.009 79.042,52.78 91.686,60.009 		"/>
	</g>
	<g>
		<polygon fill="#8AA739" points="91.686,60.009 91.686,76.252 104.329,83.145 104.329,66.836 		"/>
	</g>
	<g>
		<polygon fill="#CAC6A3" points="104.322,66.853 91.686,60.009 104.322,52.78 116.962,60.009 		"/>
	</g>
	<g>
		<polygon fill="#F15A22" points="53.767,83.152 53.767,99.393 41.124,106.404 41.124,89.994 		"/>
	</g>
	<g>
		<polygon fill="#CAC6A3" points="28.484,83.152 41.126,89.994 53.764,83.152 41.126,75.924 		"/>
	</g>
	<g>
		<polygon fill="#82806A" points="53.767,83.152 53.767,99.393 66.409,106.42 66.403,89.994 		"/>
	</g>
	<g>
		<polygon fill="#F15A22" points="79.042,83.152 79.042,99.393 66.413,106.42 66.403,89.994 		"/>
	</g>
	<g>
		<polygon fill="#CAC6A3" points="66.403,89.994 53.767,83.152 66.403,75.92 79.042,83.152 		"/>
	</g>
	<g>
		<polygon fill="#8AA739" points="79.042,83.152 79.042,99.393 91.686,106.404 91.686,89.994 		"/>
	</g>
	<g>
		<polygon fill="#CAC6A3" points="91.686,89.994 79.044,83.152 91.686,75.92 104.322,83.152 		"/>
	</g>
	<g>
		<polygon fill="#82806A" points="28.497,99.41 41.137,106.42 41.137,90.012 28.497,83.164 		"/>
	</g>
</g>
</svg>
