<?xml version="1.0" encoding="utf-8"?>
<!-- Generator: Adobe Illustrator 16.0.0, SVG Export Plug-In . SVG Version: 6.00 Build 0)  -->
<!DOCTYPE svg PUBLIC "-//W3C//DTD SVG 1.1//EN" "http://www.w3.org/Graphics/SVG/1.1/DTD/svg11.dtd">
<svg version="1.1" id="Layer_1" xmlns="http://www.w3.org/2000/svg" xmlns:xlink="http://www.w3.org/1999/xlink" x="0px" y="0px"
	 width="144px" height="144px" viewBox="0 0 144 144" enable-background="new 0 0 144 144" xml:space="preserve">
<g>
	<g>
		<rect x="39.02" y="85.547" fill="#8AA739" width="3.519" height="34.011"/>
	</g>
	<g>
		<rect x="51.864" y="85.547" fill="#8AA739" width="3.519" height="34.011"/>
	</g>
	<g>
		<rect x="64.71" y="85.547" fill="#8AA739" width="3.519" height="34.011"/>
	</g>
	<g>
		<rect x="77.555" y="85.547" fill="#8AA739" width="3.519" height="34.011"/>
	</g>
	<g>
		<rect x="90.4" y="85.547" fill="#8AA739" width="3.519" height="34.011"/>
	</g>
	<g>
		<rect x="103.245" y="85.547" fill="#8AA739" width="3.519" height="34.011"/>
	</g>
</g>
<g>
	<path fill="#8AA739" d="M111.985,83.786H33.798c-0.971,0-1.759-0.788-1.759-1.759c0-0.972,0.788-1.76,1.759-1.76h78.188
		c0.971,0,1.759,0.788,1.759,1.76C113.744,82.998,112.956,83.786,111.985,83.786z"/>
</g>
<g>
	<path fill="#8AA739" d="M111.985,124.834H33.798c-0.971,0-1.759-0.788-1.759-1.759c0-0.972,0.788-1.76,1.759-1.76h78.188
		c0.971,0,1.759,0.788,1.759,1.76C113.744,124.046,112.956,124.834,111.985,124.834z"/>
</g>
<g>
	<path fill="#8AA739" d="M72.747,20.259c-18.263,0-33.095,14.651-33.409,32.838h66.818C105.843,34.91,91.01,20.259,72.747,20.259z"
		/>
	<path fill="#8AA739" d="M106.156,54.857H39.338c-0.472,0-0.924-0.19-1.254-0.526c-0.331-0.336-0.513-0.792-0.505-1.263
		C37.907,34.007,53.685,18.5,72.747,18.5c19.063,0,34.84,15.507,35.169,34.567c0.008,0.472-0.174,0.927-0.505,1.263
		C107.081,54.667,106.629,54.857,106.156,54.857z M41.179,51.338h63.138c-1.213-16.324-15.014-29.32-31.569-29.32
		C56.192,22.019,42.392,35.014,41.179,51.338z"/>
</g>
<g>
	<rect x="71.281" y="56.616" fill="#8AA739" width="3.518" height="21.843"/>
</g>
</svg>
